<?xml version="1.0" standalone="no"?>
<!DOCTYPE svg PUBLIC "-//W3C//DTD SVG 20010904//EN"
 "http://www.w3.org/TR/2001/REC-SVG-20010904/DTD/svg10.dtd">
<svg version="1.0" xmlns="http://www.w3.org/2000/svg"
 width="248.000000pt" height="203.000000pt" viewBox="0 0 248.000000 203.000000"
 preserveAspectRatio="xMidYMid meet">

<g transform="translate(0.000000,203.000000) scale(0.100000,-0.100000)"
fill="#000000" stroke="none">
<path d="M881 1789 c-70 -42 -96 -107 -79 -198 8 -44 1 -79 -67 -350 -41 -165
-75 -317 -75 -337 0 -96 101 -149 193 -102 23 12 51 74 67 150 l13 57 39 -20
c59 -30 183 -59 252 -59 92 0 177 25 316 90 69 33 140 62 158 66 31 6 32 6 32
-28 0 -68 56 -108 153 -108 86 0 228 51 268 96 17 20 50 147 94 365 28 144 29
158 13 194 -18 40 -51 42 -138 6 -86 -35 -90 -36 -90 -18 0 23 -61 87 -103
109 -100 51 -247 33 -482 -59 -106 -42 -157 -56 -211 -60 -111 -9 -119 -5
-120 62 -3 128 -130 207 -233 144z m151 -68 c36 -40 45 -90 24 -132 -19 -39
-15 -43 57 -59 108 -23 191 -9 364 63 62 26 141 54 175 62 75 17 177 19 233 4
49 -14 113 -76 121 -118 4 -17 8 -31 10 -31 2 0 44 18 95 40 64 29 95 38 102
31 13 -13 -1 -104 -44 -296 -49 -217 -42 -201 -111 -236 -103 -52 -232 -59
-276 -15 -14 14 -14 22 -3 66 7 28 10 54 7 57 -13 13 -113 -19 -234 -76 -169
-79 -226 -95 -337 -94 -98 0 -184 23 -256 68 -21 14 -42 25 -47 25 -4 0 -19
-44 -32 -97 -30 -117 -48 -143 -97 -143 -46 0 -73 24 -73 64 1 17 36 171 79
341 73 293 77 312 63 344 -24 58 7 138 62 162 37 15 89 2 118 -30z"/>
<path d="M1784 1568 c-52 -40 -60 -74 -21 -80 l24 -3 -19 -75 c-11 -45 -26
-81 -38 -90 -10 -8 -22 -28 -26 -44 -7 -29 -7 -29 32 -23 21 4 55 7 76 7 31 0
37 4 46 30 9 24 8 31 -5 38 -14 8 -13 19 6 101 28 121 27 147 -1 155 -36 9
-43 7 -74 -16z"/>
<path d="M1565 1530 c-32 -21 -65 -73 -65 -102 0 -30 54 -24 69 8 7 16 18 24
28 22 34 -6 23 -35 -33 -89 -31 -30 -65 -72 -75 -94 -18 -39 -25 -86 -14 -97
3 -3 46 11 96 31 79 31 91 39 98 66 11 39 2 47 -37 36 -40 -12 -40 -7 -1 27
38 31 68 94 69 140 0 66 -72 94 -135 52z"/>
<path d="M1400 1449 c-25 -11 -66 -25 -92 -30 -55 -12 -53 -10 -63 -67 l-7
-43 35 6 35 7 -24 -102 c-13 -56 -24 -106 -24 -112 0 -15 63 -1 76 17 6 9 19
55 29 103 20 95 34 127 64 137 31 9 57 106 29 104 -7 0 -33 -9 -58 -20z"/>
<path d="M1034 1415 c-7 -19 -14 -40 -14 -46 0 -7 -10 -51 -22 -99 -12 -48
-18 -94 -15 -103 9 -23 81 -57 122 -57 64 0 100 62 71 121 -19 39 -19 39 -1
39 28 0 46 70 28 115 -7 20 -98 65 -131 65 -17 0 -27 -9 -38 -35z m94 -73 c3
-9 -2 -13 -14 -10 -9 1 -19 9 -22 16 -3 9 2 13 14 10 9 -1 19 -9 22 -16z m-25
-137 c1 -5 -6 -11 -15 -13 -11 -2 -18 3 -18 13 0 17 30 18 33 0z"/>
</g>
</svg>
